<?xml version="1.0" encoding="UTF-8"?><svg xmlns="http://www.w3.org/2000/svg" viewBox="0 0 63.49 22.44"><defs><style>.d{fill:#fff;}</style></defs><g id="a"/><g id="b"><g id="c"><path class="d" d="M6.37,22.44c-.51-.1-1.02-.17-1.51-.32-2.6-.78-4.27-2.44-4.75-5.16-.25-1.44-.03-2.85,.36-4.24,.72-2.53,2.01-4.76,3.56-6.86C5.53,3.81,7.22,1.92,8.93,.05,8.96,.02,8.99,0,9.07,0c-.06,.11-.13,.22-.19,.33-.94,1.7-1.69,3.47-1.98,5.4-.21,1.42-.17,2.82,.5,4.13,.88,1.72,2.33,2.69,4.23,2.98,2.11,.33,4.16,.02,6.19-.52,9.71-2.57,19.41-5.15,29.11-7.73,5.46-1.45,10.93-2.9,16.39-4.35,.05-.01,.1-.02,.17,0-.1,.05-.2,.09-.3,.14-9.8,4.19-19.61,8.39-29.41,12.58-5.71,2.44-11.42,4.89-17.14,7.31-2.2,.93-4.48,1.64-6.85,2-.35,.05-.7,.1-1.04,.15h-2.37Z"/></g></g></svg>